# xmcd CD database file
#
# Track frame offsets:
#	225
#	16247
#	38573
#	61821
#	82709
#	109449
#	128152
#	163332
#	197696
#	224930
#	239131
#	257833
#
# Disc length: 3856 seconds
#
# Revision: 1
# Processed by: cddbd v1.5.2PL0 Copyright (c) Steve Scherf et al.
# Submitted via: CDex 2.21
#
DISCID=ae0f0d0c
DTITLE=Gallagher, Rory - Unknown CD for MusicBrainz and FreeDB
DYEAR=2019
DGENRE=Blues
TTITLE0=Don't Start Me Talkin'
TTITLE1=Nothin' But The Devil
TTITLE2=Tore Down
TTITLE3=Off The Handle
TTITLE4=I Could've Had Religion
TTITLE5=As The Crow Flies
TTITLE6=A Million Miles Away
TTITLE7=Should've Learnt My Lesson
TTITLE8=Leaving Town Blues
TTITLE9=Drop Down Baby
TTITLE10=I'm Ready
TTITLE11=Bullfrog Blues
EXTD=YEAR: 2019
EXTT0=
EXTT1=
EXTT2=
EXTT3=
EXTT4=
EXTT5=
EXTT6=
EXTT7=
EXTT8=
EXTT9=
EXTT10=
EXTT11=
PLAYORDER=
